:SAMPLES-PER-SECOND 30
:FULLY-SPECIFIED
:DEGREES
315
root  41.7586 30.0784 -64.4284 -169.687 -18.2937 173.198
RightUpLeg  -47.5367 -11.4388 -13.6
RightLeg  76.3799 6.05472 18.4742
RightFoot  0.195507 -0.00122217 1.09
RightToes  -52.7851 -0.327796 -0.375399
Spine  15.1485 1.82821 8.27278
Spine1  29.7754 7.9735 5.71785
HEad  17.4185 -18.1923 7.5644
LeftShoulder1  0 -2.42657e-020 -4.95415e-022
LeftArm  -13.5215 -1.66795 -89.6464
LeftForeArm  39.282 -36.0659 -7.36629
LeftHand  -0.417563 -10.3433 4.24392
RightShoulder  0 2.42657e-020 1.07489e-018
RightArm  -84.077 23.6124 27.1519
RightForeArm  52.8013 28.0843 5.36329
RightHand  -4.61783 22.1786 -22.8853
LeftUpLeg  -46.6261 -6.96053 3.18566
LeftLeg  40.1592 -7.24366 -5.33126
LeftFoot  -0.986476 -0.00248416 -0.288567
LeftToes  -31.0857 2.37847e-007 4.89147e-008
316
root  41.5069 29.0184 -65.7343 -171.044 -17.7618 174.136
RightUpLeg  -46.5516 -8.45738 -19.5285
RightLeg  76.1752 4.7264 14.3955
RightFoot  -4.14364 -0.0119616 0.0469074
RightToes  -50.2391 -0.304997 -0.365366
Spine  15.408 2.26111 7.97194
Spine1  30.1337 8.86978 5.44178
HEad  18.0437 -18.881 7.95612
LeftShoulder1  0 -2.42657e-020 -4.95415e-022
LeftArm  -13.3449 -2.06202 -88.8304
LeftForeArm  39.5184 -36.0406 -7.3591
LeftHand  -0.378253 -10.2627 3.84295
RightShoulder  0 2.42657e-020 1.07489e-018
RightArm  -85.0881 23.5543 29.328
RightForeArm  55.6077 28.9741 5.56189
RightHand  -4.97923 23.0189 -23.7427
LeftUpLeg  -48.5574 -5.87676 5.74208
LeftLeg  45.3794 -7.84634 -6.94065
LeftFoot  5.61042 0.0695726 -1.41981
LeftToes  -40.795 2.37847e-007 4.89147e-008
317
root  41.2956 27.7442 -66.9221 -171.896 -16.6813 174.693
RightUpLeg  -46.4003 -4.07646 -25.8621
RightLeg  72.5653 2.97813 7.46348
RightFoot  -4.79317 0.0114679 0.651649
RightToes  -45.5924 -0.264627 -0.344485
Spine  16.0328 2.71576 7.618
Spine1  30.9767 9.88607 4.79762
HEad  18.3144 -20.1027 7.80587
LeftShoulder1  0 -2.42657e-020 -4.95415e-022
LeftArm  -13.6605 -3.20425 -88.0755
LeftForeArm  39.1202 -36.6213 -7.51927
LeftHand  -0.382749 -10.2449 3.90041
RightShoulder  0 2.42657e-020 1.07489e-018
RightArm  -81.742 23.6953 31.6014
RightForeArm  56.503 28.4139 5.43081
RightHand  -5.88059 22.3067 -28.8414
LeftUpLeg  -52.4336 -0.765976 4.99781
LeftLeg  57.6319 -8.47643 -11.4576
LeftFoot  -0.0271786 -0.000123657 -0.52131
LeftToes  -37.2214 2.37847e-007 4.89147e-008
318
root  41.2643 26.4317 -68.0278 -172.05 -16.0403 175.095
RightUpLeg  -47.1388 2.19487 -32.1367
RightLeg  67.383 3.19786 6.30131
RightFoot  -6.67866 0.0127553 0.596217
RightToes  -49.2439 -0.296211 -0.36117
Spine  16.9786 3.00018 7.26375
Spine1  32.2297 10.3883 4.3397
HEad  17.0529 -21.7977 8.43423
LeftShoulder1  0 -2.42657e-020 -4.95415e-022
LeftArm  -13.054 -6.13846 -86.845
LeftForeArm  38.7789 -36.7177 -7.54643
LeftHand  -0.398973 -9.92408 4.22588
RightShoulder  0 2.42657e-020 1.07489e-018
RightArm  -78.1126 24.822 32.6075
RightForeArm  61.853 24.4672 4.54621
RightHand  -5.9992 21.0295 -31.1701
LeftUpLeg  -56.0368 -0.116199 6.31888
LeftLeg  67.2163 -6.27134 -12.3897
LeftFoot  -5.51173 0.026079 0.541763
LeftToes  -40.5121 2.37847e-007 4.89147e-008
319
root  41.5076 25.3012 -69.0727 -172.078 -15.5083 175.168
RightUpLeg  -49.2442 10.9548 -38.5442
RightLeg  63.8326 5.47939 9.34162
RightFoot  -9.04273 -0.0460431 -0.204719
RightToes  -60.4554 -0.398849 -0.399374
Spine  18.1242 3.22312 6.59004
Spine1  33.4692 10.3101 4.20541
HEad  15.8826 -23.7654 9.40986
LeftShoulder1  0 -2.42657e-020 -4.95415e-022
LeftArm  -12.0993 -10.4997 -85.1564
LeftForeArm  38.8488 -35.7578 -7.28301
LeftHand  -0.384172 -10.1537 3.95498
RightShoulder  0 2.42657e-020 1.07489e-018
RightArm  -77.4975 27.0859 32.7397
RightForeArm  65.4763 17.9657 3.21506
RightHand  -6.22574 23.7206 -28.6736
LeftUpLeg  -58.3869 -0.879111 8.22954
LeftLeg  74.3295 -4.16138 -11.693
LeftFoot  -9.98368 0.0842118 0.964094
LeftToes  -43.109 2.37847e-007 4.89147e-008
320
root  41.9733 24.3323 -69.9882 -171.608 -16.237 174.973
RightUpLeg  -52.5147 17.0999 -43.2452
RightLeg  64.5545 6.35682 11.1304
RightFoot  -13.1694 -0.196587 -1.32543
RightToes  -66.0913 -0.452765 -0.410826
Spine  19.1586 3.06598 6.06355
Spine1  34.5137 9.39565 4.35385
HEad  14.4779 -25.093 9.75257
LeftShoulder1  0 -2.42657e-020 -4.95415e-022
LeftArm  -10.9057 -15.0454 -83.0419
LeftForeArm  38.7794 -35.3715 -7.17897
LeftHand  -0.332182 -10.3357 3.30388
RightShoulder  0 2.42657e-020 1.07489e-018
RightArm  -79.9782 30.4817 31.1679
RightForeArm  69.2981 11.0368 1.90343
RightHand  -5.14203 25.0779 -22.4639
LeftUpLeg  -60.4957 -2.12929 10.1916
LeftLeg  79.235 -2.98116 -11.4393
LeftFoot  -13.1999 0.131772 1.13884
LeftToes  -45.2719 2.37847e-007 4.89147e-008
321
root  42.6065 23.5109 -70.7998 -170.683 -18.4842 174.945
RightUpLeg  -53.4476 15.4327 -42.3685
RightLeg  68.9794 5.12162 10.8349
RightFoot  -17.7382 -0.353272 -1.88618
RightToes  -65.4363 -0.446444 -0.41118
Spine  19.8398 2.33416 6.01736
Spine1  35.0719 7.62489 4.88446
HEad  13.2533 -25.3767 9.64851
LeftShoulder1  0 -2.42657e-020 -4.95415e-022
LeftArm  -9.64411 -18.8772 -80.5045
LeftForeArm  37.9984 -35.7854 -7.29145
LeftHand  -0.360438 -10.3322 3.61753
RightShoulder  0 2.42657e-020 1.07489e-018
RightArm  -85.3481 33.4358 27.8467
RightForeArm  64.3482 2.52806 0.399822
RightHand  -1.57735 21.6881 -7.85299
LeftUpLeg  -62.9986 -4.14639 12.6758
LeftLeg  82.5609 -2.29053 -11.5271
LeftFoot  -15.4287 0.171868 1.26871
LeftToes  -47.2653 2.37847e-007 4.89147e-008
322
root  43.3356 22.9991 -71.5226 -170.11 -21.5759 175.244
RightUpLeg  -52.2821 12.6869 -39.5422
RightLeg  72.5007 3.79514 9.4994
RightFoot  -23.3841 -0.549938 -2.27947
RightToes  -62.1045 -0.414505 -0.406815
Spine  19.9658 1.29293 5.83358
Spine1  34.7298 4.79588 6.01394
HEad  12.2625 -25.0726 10.7944
LeftShoulder1  0 -2.42657e-020 -4.95415e-022
LeftArm  -9.66724 -21.334 -78.2171
LeftForeArm  38.4248 -36.3735 -7.45163
LeftHand  -0.359682 -10.61 3.50444
RightShoulder  0 2.42657e-020 1.07489e-018
RightArm  -84.347 32.1995 31.8874
RightForeArm  45.1455 4.2795 0.744422
RightHand  -0.854107 17.2771 -5.24946
LeftUpLeg  -64.6686 -6.46872 15.6337
LeftLeg  83.7812 -2.13148 -12.0679
LeftFoot  -16.8122 0.221019 1.49554
LeftToes  -49.0573 2.37847e-007 4.89147e-008
323
root  44.0459 22.885 -72.2135 -169.638 -23.3951 175.713
RightUpLeg  -52.7729 12.2185 -37.3348
RightLeg  75.9208 3.00095 9.02786
RightFoot  -25.2488 -0.592249 -2.26636
RightToes  -61.8582 -0.41216 -0.402719
Spine  20.0961 0.652833 5.77154
Spine1  34.7917 3.17798 6.4447
HEad  12.0491 -22.7699 10.3399
LeftShoulder1  0 -2.42657e-020 -4.95415e-022
LeftArm  -11.6866 -22.4693 -77.0276
LeftForeArm  37.848 -37.2127 -7.68596
LeftHand  -0.388578 -10.4606 3.87556
RightShoulder  0 2.42657e-020 1.07489e-018
RightArm  -95.512 32.4846 36.5451
RightForeArm  37.3013 7.51685 1.32782
RightHand  -0.670081 18.7029 -3.6986
LeftUpLeg  -64.8285 -7.33658 18.1864
LeftLeg  83.2487 -2.33768 -12.527
LeftFoot  -17.6144 0.267957 1.72932
LeftToes  -49.8168 2.37847e-007 4.89147e-008
324
root  44.5826 23.1519 -72.7687 -169.138 -25.4195 176.088
RightUpLeg  -51.831 10.4006 -34.7782
RightLeg  76.9334 2.8589 9.13381
RightFoot  -25.8784 -0.649682 -2.44974
RightToes  -61.1361 -0.405298 -0.400818
Spine  20.0058 -0.0109383 6.14691
Spine1  34.7519 1.8889 6.86516
HEad  12.7803 -18.9453 6.99468
LeftShoulder1  0 -2.42657e-020 -4.95415e-022
LeftArm  -13.284 -22.0018 -77.1546
LeftForeArm  36.3009 -38.1116 -7.94391
LeftHand  -0.410959 -9.91971 4.36589
RightShoulder  0 2.42657e-020 1.07489e-018
RightArm  -98.9956 32.3665 39.1287
RightForeArm  30.6663 11.359 2.02681
RightHand  -0.215411 20.5977 -0.815666
LeftUpLeg  -64.53 -8.0128 19.8087
LeftLeg  81.3686 -2.90827 -13.1165
LeftFoot  -16.986 0.270904 1.81402
LeftToes  -50.1583 2.37847e-007 4.89147e-008
325
root  44.975 23.7244 -73.156 -168.214 -27.4487 176.476
RightUpLeg  -50.0633 8.32632 -32.4527
RightLeg  75.2259 3.12291 9.03037
RightFoot  -25.9384 -0.691939 -2.62635
RightToes  -60.1725 -0.396175 -0.399316
Spine  19.3672 -0.532191 6.65418
Spine1  33.9352 0.867137 7.47214
HEad  14.2466 -13.5284 1.72116
LeftShoulder1  0 -2.42657e-020 -4.95415e-022
LeftArm  -14.6929 -20.1056 -78.5231
LeftForeArm  35.8549 -38.5783 -8.08002
LeftHand  -0.403669 -10.0119 4.23896
RightShoulder  0 2.42657e-020 1.07489e-018
RightArm  -98.3337 30.9856 41.233
RightForeArm  22.638 15.9969 2.89472
RightHand  0.419369 22.4508 2.48352
LeftUpLeg  -64.0574 -8.35555 20.7687
LeftLeg  78.1424 -3.85065 -13.6017
LeftFoot  -15.5684 0.245696 1.79716
LeftToes  -50.5921 2.37847e-007 4.89147e-008
326
root  45.2418 24.552 -73.4499 -166.816 -28.9683 176.382
RightUpLeg  -48.4282 6.76035 -30.8121
RightLeg  72.2949 3.42929 8.49128
RightFoot  -24.6929 -0.61771 -2.44406
RightToes  -59.5572 -0.390371 -0.397615
Spine  18.6971 -0.860413 6.83605
Spine1  33.1234 0.473988 7.23352
HEad  14.5818 -6.52586 -3.09557
LeftShoulder1  0 -2.42657e-020 -4.95415e-022
LeftArm  -15.8054 -17.5885 -79.7482
LeftForeArm  35.8738 -39.0398 -8.21598
LeftHand  -0.415086 -9.98732 4.38087
RightShoulder  0 2.42657e-020 1.07489e-018
RightArm  -95.0346 29.6782 41.8698
RightForeArm  18.8743 19.4255 3.56106
RightHand  2.15748 25.5232 9.87737
LeftUpLeg  -62.9716 -8.71002 20.8915
LeftLeg  73.7203 -4.99955 -13.5109
LeftFoot  -13.6325 0.186814 1.56279
LeftToes  -49.8137 2.37847e-007 4.89147e-008
327
root  45.3799 25.5394 -73.6934 -165.237 -31.4029 175.981
RightUpLeg  -45.715 5.31836 -29.4218
RightLeg  68.2112 3.42457 7.00165
RightFoot  -22.844 -0.444631 -1.82301
RightToes  -58.838 -0.383609 -0.395113
Spine  18.0237 -1.23917 6.90953
Spine1  32.2565 -0.165908 7.16922
HEad  14.4455 -0.180762 -7.12647
LeftShoulder1  0 -2.42657e-020 -4.95415e-022
LeftArm  -16.1512 -15.4743 -81.5052
LeftForeArm  36.6676 -38.6939 -8.11311
LeftHand  -0.444817 -9.75524 4.84239
RightShoulder  0 2.42657e-020 1.07489e-018
RightArm  -88.5371 27.2117 42.0501
RightForeArm  13.2467 24.8776 4.68357
RightHand  3.95308 26.654 16.9514
LeftUpLeg  -61.8653 -9.62005 20.5353
LeftLeg  68.4501 -6.52664 -13.5752
LeftFoot  -10.8734 0.115479 1.21329
LeftToes  -49.0611 2.37847e-007 4.89147e-008
